<svg width="1333" height="417" viewBox="0 0 1333 417" fill="none" xmlns="http://www.w3.org/2000/svg">
<path d="M177.993 1.78123C144.527 6.8479 111.193 20.5812 84.7934 40.3146C71.3267 50.3146 53.06 67.1146 54.1267 68.3146C54.7934 68.8479 81.06 72.1812 122.66 76.9812C129.327 77.7812 141.86 79.2479 150.66 80.3146C159.46 81.3812 179.327 83.7812 194.66 85.6479C210.127 87.3812 224.527 89.2479 226.793 89.5146C230.393 90.0479 231.193 89.5146 233.06 85.9146C234.26 83.5146 236.26 80.0479 237.46 78.1812C239.593 74.8479 239.46 74.5812 223.86 47.5146C215.193 32.5812 205.46 15.6479 202.26 9.91456C195.593 -1.68544 197.327 -1.1521 177.993 1.78123Z" fill="#0057A8"/>
<path d="M223.326 0.581359C223.326 1.11469 229.593 16.9814 237.46 35.648L251.46 69.7814H258.393C262.66 69.9147 267.46 70.9814 270.793 72.7147C276.126 75.3814 283.326 82.5814 283.326 85.1147C283.326 85.7814 284.26 86.3147 285.326 86.3147C288.793 86.3147 361.326 68.848 362.393 67.7814C364.259 66.048 340.926 45.248 325.993 35.3814C309.593 24.5814 291.593 15.648 274.926 10.1814C257.326 4.44803 223.326 -1.81864 223.326 0.581359Z" fill="#0057A8"/>
<path d="M495.326 150.848V227.648H510.66H525.993L526.26 199.915L526.66 172.315L542.66 171.648C556.526 170.981 559.726 170.315 567.06 166.981C581.726 160.315 590.126 147.381 592.126 128.448C593.86 111.381 587.593 93.5146 576.66 84.7146C566.793 76.8479 559.06 75.3813 525.726 74.5813L495.326 73.9146V150.848ZM551.193 105.381C558.126 107.781 561.06 112.715 561.193 121.915C561.326 137.248 555.326 142.315 537.06 142.315H525.993V123.915C525.993 113.781 526.393 104.981 526.926 104.581C528.393 103.115 546.393 103.648 551.193 105.381Z" fill="#0057A8"/>
<path d="M648.394 76.048C632.26 82.1814 622.66 92.3147 618.527 108.315C615.727 118.715 615.994 183.648 618.794 194.981C624.527 217.781 644.927 230.981 670.527 228.581C688.927 226.848 701.86 218.315 709.46 202.981L713.327 194.981V151.648V108.315L708.927 99.3814C704.127 89.648 697.86 83.3814 687.727 78.3147C682.394 75.648 679.06 74.9814 667.327 74.7147C657.994 74.448 651.727 74.848 648.394 76.048ZM675.327 107.515C681.727 112.048 681.994 113.915 681.994 152.315C681.994 191.781 681.86 192.181 673.994 196.315C665.594 200.715 654.527 197.781 650.394 189.915C648.394 186.315 647.994 181.248 647.594 155.648C647.327 139.115 647.46 123.115 647.994 120.048C649.994 106.448 664.527 99.9147 675.327 107.515Z" fill="#0057A8"/>
<path d="M775.727 76.7147C762.26 81.5147 751.727 92.848 747.993 106.981C746.127 113.781 745.86 121.115 746.26 154.315C746.66 191.381 746.927 194.048 749.727 201.115C753.993 211.648 760.527 218.715 770.927 223.915C779.193 227.915 780.793 228.181 793.193 228.315C811.727 228.315 818.793 225.781 829.46 214.981C835.86 208.581 838.26 205.248 840.127 199.248C841.327 195.115 842.26 191.515 841.86 191.248C841.593 190.981 835.06 188.981 827.327 186.715L813.327 182.848L810.66 188.048C806.927 195.248 800.527 198.581 792.26 197.915C778.26 196.715 776.26 190.181 776.927 146.581C777.327 120.315 777.593 115.648 779.727 112.581C783.193 107.115 788.26 104.581 794.793 104.581C802.127 104.581 806.927 107.781 810.66 115.115L813.46 120.448L827.327 116.315C843.46 111.648 843.993 110.981 838.793 100.315C834.127 90.9814 825.86 82.7147 816.66 78.448C806.793 73.9147 786.26 72.9814 775.727 76.7147Z" fill="#0057A8"/>
<path d="M901.727 76.1814C888.393 80.9814 879.727 88.9813 873.727 101.781C870.793 108.181 870.66 109.515 870.66 149.648C870.66 194.581 870.927 196.581 878.26 208.981C883.06 216.848 891.993 223.915 900.393 226.315C909.993 229.115 923.46 229.381 932.66 227.115C947.46 223.248 957.327 215.248 963.327 202.048C967.06 193.915 966.793 190.848 962.393 189.781C960.26 189.381 953.86 187.515 947.993 185.781L937.46 182.581L935.06 187.781C928.927 201.648 907.993 201.781 903.193 188.048C901.86 184.315 901.327 174.315 901.327 149.515V116.048L905.06 111.248C911.727 102.581 923.993 102.048 931.86 110.048C933.86 112.181 935.86 115.515 936.393 117.381L937.327 120.715L951.727 116.448C959.593 114.048 966.26 111.781 966.527 111.515C967.46 110.315 964.393 102.448 960.393 95.648C951.86 81.5147 937.593 74.3147 918.26 74.3147C911.86 74.448 904.527 75.248 901.727 76.1814Z" fill="#0057A8"/>
<path d="M997.993 150.981V227.648H1041.99H1085.99V212.981V198.315L1057.73 198.048L1029.33 197.648V181.648V165.648L1053.99 164.981L1078.66 164.315V150.315V136.315L1053.59 135.915L1028.53 135.648L1028.93 119.915L1029.33 104.315L1057.73 103.915L1085.99 103.648V88.9813V74.3146H1041.99H997.993V150.981Z" fill="#0057A8"/>
<path d="M1104.66 88.9813V103.648H1121.33H1137.99V165.648V227.648H1153.33H1168.66V165.648V103.648H1185.33H1202.13L1201.73 89.2479L1201.33 74.9813L1153.06 74.5813L1104.66 74.3146V88.9813Z" fill="#0057A8"/>
<path d="M1228.66 150.981V227.648H1243.19H1257.86L1278.93 186.581L1299.99 145.648L1300.39 186.581L1300.66 227.648H1316.66H1332.66V150.981V74.1813L1318.53 74.5813L1304.26 74.9813L1281.86 119.648L1259.46 164.315V119.248L1259.33 74.3146H1243.99H1228.66V150.981Z" fill="#0057A8"/>
<path d="M365.993 89.7814C359.06 90.5814 339.593 92.9814 322.66 94.848C284.793 99.3814 285.993 99.1147 285.993 102.448C285.993 103.915 285.193 107.115 284.126 109.648L282.26 114.181L327.06 156.581C351.726 179.915 377.726 204.448 384.66 210.981C411.993 237.115 415.326 240.048 416.393 239.115C416.926 238.581 417.326 225.381 417.326 209.915C417.326 179.381 415.593 167.248 407.726 142.981C401.726 124.315 385.993 93.648 380.393 89.3814C379.326 88.5814 374.126 88.7147 365.993 89.7814Z" fill="#0057A8"/>
<path d="M31.5933 97.248C19.5933 114.848 6.9266 147.781 2.5266 172.981C-0.140067 188.048 -0.806733 220.981 1.05993 234.715L2.25993 242.448L8.39327 238.848C13.8599 235.648 58.7933 209.381 137.993 162.981C188.66 133.248 230.66 108.581 231.06 108.315C231.327 108.048 231.06 106.448 230.66 104.715C229.727 100.848 234.127 101.381 159.327 97.648C136.927 96.448 103.193 94.7147 84.1266 93.648C33.3266 90.7147 36.2599 90.448 31.5933 97.248Z" fill="#0057A8"/>
<path d="M215.994 131.381C205.06 138.581 173.86 159.115 146.66 176.981C119.593 194.848 86.7935 216.315 73.9935 224.715C61.1935 233.248 41.1935 246.315 29.7268 253.915C18.1268 261.515 8.66016 268.181 8.66016 268.848C8.66016 272.048 17.3268 293.248 23.3268 304.848C36.6602 330.581 58.6602 356.715 81.3268 373.915C92.1268 381.915 104.793 390.315 106.527 390.315C108.127 390.315 240.794 121.915 240.127 120.048C239.727 119.115 238.66 118.315 237.727 118.315C236.794 118.315 227.06 124.181 215.994 131.381Z" fill="#0057A8"/>
<path d="M269.727 123.915C267.727 125.515 267.86 126.848 269.994 140.981C271.46 149.381 273.727 163.781 275.194 172.981C280.794 208.181 300.927 333.648 305.46 360.981C307.994 376.715 310.394 389.781 310.66 390.048C312.26 391.781 339.06 372.848 351.86 360.848C375.86 338.448 396.527 306.848 406.66 277.115L409.994 267.381L400.26 257.115C383.327 239.381 358.127 212.315 297.594 147.115C285.327 133.781 274.527 122.848 273.594 122.581C272.66 122.448 270.927 122.981 269.727 123.915Z" fill="#0057A8"/>
<path d="M246.793 135.381C244.793 140.315 230.393 172.848 215.06 207.648C149.06 356.981 136.26 386.048 132.926 393.381C128.926 402.715 128.26 402.048 146.126 407.648C176.26 417.115 211.326 419.515 242.66 414.315C257.06 411.915 281.86 405.248 285.46 402.715C286.793 401.781 284.26 375.381 276.126 304.315C274.926 294.048 271.193 260.715 267.993 230.315C264.66 199.915 260.793 164.715 259.326 152.048C257.86 139.515 256.66 128.581 256.66 127.781C256.66 126.981 255.326 126.315 253.726 126.315C251.193 126.315 249.993 128.048 246.793 135.381Z" fill="#0057A8"/>
<path d="M587.326 302.181C577.326 305.248 570.66 311.648 567.46 320.848C566.526 323.648 565.993 335.248 565.993 350.315C565.993 379.248 567.193 384.848 575.326 392.181C588.126 403.781 610.526 401.248 620.26 387.248L623.993 381.915L624.393 353.248C624.793 328.981 624.527 323.648 622.66 318.715C617.727 305.915 601.06 298.048 587.326 302.181ZM601.06 317.115C608.26 320.848 608.66 322.315 608.66 350.581C608.66 376.448 608.66 376.848 605.46 380.581C602.66 383.781 601.193 384.315 595.46 384.315C585.326 384.315 583.193 381.515 581.86 366.715C580.126 346.315 580.393 330.848 582.793 324.981C585.993 316.981 593.993 313.515 601.06 317.115Z" fill="#0057A8"/>
<path d="M493.993 350.448V398.581L515.06 398.048C531.86 397.648 536.793 397.115 540.393 395.248C549.327 390.315 554.127 377.915 552.127 364.315C551.327 359.648 549.86 356.848 545.993 352.981C541.06 348.048 540.926 347.648 543.193 346.048C550.927 340.581 553.593 326.715 548.793 316.315C543.593 304.848 537.193 302.448 512.393 302.315H493.993V350.448ZM529.993 318.715C535.193 321.381 537.326 326.981 535.46 333.115C533.46 339.781 528.66 342.315 517.993 342.315H509.993V329.648V316.981H518.393C522.926 316.981 528.126 317.781 529.993 318.715ZM531.326 357.381C535.993 359.781 538.393 367.648 536.66 374.448C534.66 381.781 531.193 383.648 519.726 383.648H509.993V369.648V355.648H519.06C523.993 355.648 529.46 356.448 531.326 357.381Z" fill="#0057A8"/>
<path d="M649.993 335.115C649.993 372.448 649.193 377.781 642.393 383.648C639.993 385.915 637.193 387.648 636.526 387.648C635.06 387.648 635.593 391.248 637.993 397.515C639.06 400.581 639.46 400.715 644.26 399.248C651.326 397.115 659.86 388.181 661.86 380.848C662.926 377.381 663.86 363.515 664.26 345.915L664.926 316.981H676.126H687.326V358.315V399.648H694.66H701.993V350.981V302.315H675.993H649.993V335.115Z" fill="#0057A8"/>
<path d="M720.66 350.315V398.315H727.993H735.327V357.648V316.981H753.993H772.66V309.648V302.315H746.66H720.66V350.315Z" fill="#0057A8"/>
<path d="M792.26 323.248C788.793 334.848 782.526 356.448 778.126 371.248L770.26 398.315H778.66H787.06L789.593 387.915L792.126 377.648L805.593 377.248L819.06 376.848L821.193 383.915C822.26 387.781 823.593 392.581 823.993 394.715C824.926 398.181 825.326 398.315 832.793 398.315C838.26 398.315 840.66 397.781 840.66 396.581C840.66 395.781 837.326 383.915 833.326 370.315C829.326 356.715 823.193 335.915 819.726 323.915L813.46 302.315H805.86H798.393L792.26 323.248ZM811.06 343.248C813.326 353.381 815.326 362.048 815.326 362.581C815.326 363.248 810.926 363.648 805.593 363.648H795.86L800.526 344.315C803.193 333.648 805.593 324.981 805.993 324.981C806.393 324.981 808.66 333.248 811.06 343.248Z" fill="#0057A8"/>
</svg>
