<?xml version="1.0" standalone="no"?>
<!DOCTYPE svg PUBLIC "-//W3C//DTD SVG 20010904//EN"
 "http://www.w3.org/TR/2001/REC-SVG-20010904/DTD/svg10.dtd">
<svg version="1.0" xmlns="http://www.w3.org/2000/svg"
 width="1000.000000pt" height="313.000000pt" viewBox="0 0 1000.000000 313.000000"
 preserveAspectRatio="xMidYMid meet">

<g transform="translate(0.000000,313.000000) scale(0.100000,-0.100000)"
fill="#0057A8" stroke="none">
<path d="M1340 3114 c-251 -38 -501 -141 -699 -289 -101 -75 -238 -201 -230
-210 5 -4 202 -29 514 -65 50 -6 144 -17 210 -25 66 -8 215 -26 330 -40 116
-13 224 -27 241 -29 27 -4 33 0 47 27 9 18 24 44 33 58 16 25 15 27 -102 230
-65 112 -138 239 -162 282 -50 87 -37 83 -182 61z"/>
<path d="M1680 3123 c0 -4 47 -123 106 -263 l105 -256 52 0 c32 -1 68 -9 93
-22 40 -20 94 -74 94 -93 0 -5 7 -9 15 -9 26 0 570 131 578 139 14 13 -161
169 -273 243 -123 81 -258 148 -383 189 -132 43 -387 90 -387 72z"/>
<path d="M3720 1996 l0 -576 115 0 115 0 2 208 3 207 120 5 c104 5 128 10 183
35 110 50 173 147 188 289 13 128 -34 262 -116 328 -74 59 -132 70 -382 76
l-228 5 0 -577z m419 341 c52 -18 74 -55 75 -124 1 -115 -44 -153 -181 -153
l-83 0 0 138 c0 76 3 142 7 145 11 11 146 7 182 -6z"/>
<path d="M4868 2557 c-121 -46 -193 -122 -224 -242 -21 -78 -19 -565 2 -650
43 -171 196 -270 388 -252 138 13 235 77 292 192 l29 60 0 325 0 325 -33 67
c-36 73 -83 120 -159 158 -40 20 -65 25 -153 27 -70 2 -117 -1 -142 -10z m202
-236 c48 -34 50 -48 50 -336 0 -296 -1 -299 -60 -330 -63 -33 -146 -11 -177
48 -15 27 -18 65 -21 257 -2 124 -1 244 3 267 15 102 124 151 205 94z"/>
<path d="M5823 2552 c-101 -36 -180 -121 -208 -227 -14 -51 -16 -106 -13 -355
3 -278 5 -298 26 -351 32 -79 81 -132 159 -171 62 -30 74 -32 167 -33 139 0
192 19 272 100 48 48 66 73 80 118 9 31 16 58 13 60 -2 2 -51 17 -109 34
l-105 29 -20 -39 c-28 -54 -76 -79 -138 -74 -105 9 -120 58 -115 385 3 197 5
232 21 255 26 41 64 60 113 60 55 0 91 -24 119 -79 l21 -40 104 31 c121 35
125 40 86 120 -35 70 -97 132 -166 164 -74 34 -228 41 -307 13z"/>
<path d="M6768 2556 c-100 -36 -165 -96 -210 -192 -22 -48 -23 -58 -23 -359 0
-337 2 -352 57 -445 36 -59 103 -112 166 -130 72 -21 173 -23 242 -6 111 29
185 89 230 188 28 61 26 84 -7 92 -16 3 -64 17 -108 30 l-79 24 -18 -39 c-46
-104 -203 -105 -239 -2 -10 28 -14 103 -14 289 l0 251 28 36 c50 65 142 69
201 9 15 -16 30 -41 34 -55 l7 -25 108 32 c59 18 109 35 111 37 7 9 -16 68
-46 119 -64 106 -171 160 -316 160 -48 -1 -103 -7 -124 -14z"/>
<path d="M7490 1995 l0 -575 330 0 330 0 0 110 0 110 -212 2 -213 3 0 120 0
120 185 5 185 5 0 105 0 105 -188 3 -188 2 3 118 3 117 213 3 212 2 0 110 0
110 -330 0 -330 0 0 -575z"/>
<path d="M8290 2460 l0 -110 125 0 125 0 0 -465 0 -465 115 0 115 0 0 465 0
465 125 0 126 0 -3 108 -3 107 -362 3 -363 2 0 -110z"/>
<path d="M9220 1995 l0 -575 109 0 110 0 158 308 158 307 3 -307 2 -308 120 0
120 0 0 575 0 576 -106 -3 -107 -3 -168 -335 -168 -335 0 338 -1 337 -115 0
-115 0 0 -575z"/>
<path d="M2750 2454 c-52 -6 -198 -24 -325 -38 -284 -34 -275 -32 -275 -57 0
-11 -6 -35 -14 -54 l-14 -34 336 -318 c185 -175 380 -359 432 -408 205 -196
230 -218 238 -211 4 4 7 103 7 219 0 229 -13 320 -72 502 -45 140 -163 370
-205 402 -8 6 -47 5 -108 -3z"/>
<path d="M242 2398 c-90 -132 -185 -379 -218 -568 -20 -113 -25 -360 -11 -463
l9 -58 46 27 c41 24 378 221 972 569 380 223 695 408 698 410 2 2 0 14 -3 27
-7 29 26 25 -535 53 -168 9 -421 22 -564 30 -381 22 -359 24 -394 -27z"/>
<path d="M1625 2142 c-82 -54 -316 -208 -520 -342 -203 -134 -449 -295 -545
-358 -96 -64 -246 -162 -332 -219 -87 -57 -158 -107 -158 -112 0 -24 65 -183
110 -270 100 -193 265 -389 435 -518 81 -60 176 -123 189 -123 12 0 1007 2013
1002 2027 -3 7 -11 13 -18 13 -7 0 -80 -44 -163 -98z"/>
<path d="M2028 2198 c-15 -12 -14 -22 2 -128 11 -63 28 -171 39 -240 42 -264
193 -1205 227 -1410 19 -118 37 -216 39 -218 12 -13 213 129 309 219 180 168
335 405 411 628 l25 73 -73 77 c-127 133 -316 336 -770 825 -92 100 -173 182
-180 184 -7 1 -20 -3 -29 -10z"/>
<path d="M1856 2112 c-15 -37 -123 -281 -238 -542 -495 -1120 -591 -1338 -616
-1393 -30 -70 -35 -65 99 -107 226 -71 489 -89 724 -50 108 18 294 68 321 87
10 7 -9 205 -70 738 -9 77 -37 327 -61 555 -25 228 -54 492 -65 587 -11 94
-20 176 -20 182 0 6 -10 11 -22 11 -19 0 -28 -13 -52 -68z"/>
<path d="M4410 861 c-75 -23 -125 -71 -149 -140 -7 -21 -11 -108 -11 -221 0
-217 9 -259 70 -314 96 -87 264 -68 337 37 l28 40 3 215 c3 182 1 222 -13 259
-37 96 -162 155 -265 124z m103 -112 c54 -28 57 -39 57 -251 0 -194 0 -197
-24 -225 -21 -24 -32 -28 -75 -28 -76 0 -92 21 -102 132 -13 153 -11 269 7
313 24 60 84 86 137 59z"/>
<path d="M3710 499 l0 -361 158 4 c126 3 163 7 190 21 67 37 103 130 88 232
-6 35 -17 56 -46 85 -37 37 -38 40 -21 52 58 41 78 145 42 223 -39 86 -87 104
-273 105 l-138 0 0 -361z m270 238 c39 -20 55 -62 41 -108 -15 -50 -51 -69
-131 -69 l-60 0 0 95 0 95 63 0 c34 0 73 -6 87 -13z m10 -290 c35 -18 53 -77
40 -128 -15 -55 -41 -69 -127 -69 l-73 0 0 105 0 105 68 0 c37 0 78 -6 92 -13z"/>
<path d="M4880 614 c0 -280 -6 -320 -57 -364 -18 -17 -39 -30 -44 -30 -11 0
-7 -27 11 -74 8 -23 11 -24 47 -13 53 16 117 83 132 138 8 26 15 130 18 262
l5 217 84 0 84 0 0 -310 0 -310 55 0 55 0 0 365 0 365 -195 0 -195 0 0 -246z"/>
<path d="M5410 500 l0 -360 55 0 55 0 0 305 0 305 140 0 140 0 0 55 0 55 -195
0 -195 0 0 -360z"/>
<path d="M5947 703 c-26 -87 -73 -249 -106 -360 l-59 -203 63 0 63 0 19 78 19
77 101 3 101 3 16 -53 c8 -29 18 -65 21 -81 7 -26 10 -27 66 -27 41 0 59 4 59
13 0 6 -25 95 -55 197 -30 102 -76 258 -102 348 l-47 162 -57 0 -56 0 -46
-157z m141 -150 c17 -76 32 -141 32 -145 0 -5 -33 -8 -73 -8 l-73 0 35 145
c20 80 38 145 41 145 3 0 20 -62 38 -137z"/>
</g>
</svg>
