<svg width="316" height="316" viewBox="0 0 316 316" fill="none" xmlns="http://www.w3.org/2000/svg">
<circle cx="158" cy="158" r="158" fill="white"/>
<path d="M158.498 84.0661C171.012 84.0661 181.19 94.2275 181.19 106.72C181.19 119.202 171.009 129.363 158.498 129.363C145.993 129.363 135.812 119.202 135.812 106.72C135.809 94.2249 145.996 84.0661 158.498 84.0661ZM158.498 161.413C188.725 161.413 213.305 136.882 213.305 106.72C213.305 76.5419 188.727 52 158.498 52C128.275 52 103.692 76.5445 103.692 106.72C103.692 136.882 128.275 161.413 158.498 161.413ZM180.671 206.042C191.946 203.479 202.705 199.031 212.495 192.888C216.099 190.624 218.654 187.024 219.599 182.879C220.545 178.734 219.802 174.384 217.534 170.786C216.413 169.003 214.95 167.458 213.23 166.24C211.51 165.021 209.566 164.153 207.51 163.685C205.454 163.217 203.325 163.158 201.246 163.512C199.167 163.866 197.178 164.626 195.393 165.748C172.94 179.84 144.041 179.83 121.606 165.748C119.822 164.625 117.833 163.866 115.754 163.511C113.675 163.157 111.547 163.216 109.491 163.684C107.434 164.152 105.491 165.02 103.771 166.239C102.051 167.458 100.589 169.003 99.468 170.786C97.1998 174.383 96.4557 178.733 97.3993 182.877C98.3429 187.022 100.897 190.623 104.5 192.888C114.288 199.029 125.046 203.477 136.318 206.042L105.68 236.634C102.669 239.641 100.978 243.719 100.979 247.97C100.98 252.222 102.672 256.299 105.684 259.305C108.696 262.311 112.781 263.999 117.039 263.998C121.298 263.997 125.382 262.308 128.393 259.301L158.493 229.246L188.612 259.303C190.101 260.792 191.87 261.973 193.817 262.779C195.763 263.585 197.85 264 199.958 264C202.065 264 204.152 263.585 206.099 262.779C208.046 261.973 209.815 260.792 211.304 259.303C212.797 257.817 213.982 256.051 214.791 254.106C215.6 252.162 216.016 250.077 216.016 247.971C216.016 245.866 215.6 243.781 214.791 241.837C213.982 239.892 212.797 238.126 211.304 236.639L180.671 206.042Z" fill="#EE8208"/>
</svg>
