<svg width="316" height="316" viewBox="0 0 316 316" fill="none" xmlns="http://www.w3.org/2000/svg">
<circle cx="158" cy="158" r="158" fill="white"/>
<path d="M38.93 181C38.4167 181 37.9967 180.837 37.67 180.51C37.3433 180.183 37.18 179.763 37.18 179.25V133.75C37.18 133.237 37.3433 132.817 37.67 132.49C37.9967 132.163 38.4167 132 38.93 132H57.48C63.3133 132 67.91 133.353 71.27 136.06C74.63 138.72 76.31 142.57 76.31 147.61C76.31 151.017 75.4933 153.863 73.86 156.15C72.2267 158.437 70.0333 160.14 67.28 161.26L77.15 178.76C77.29 179.04 77.36 179.297 77.36 179.53C77.36 179.903 77.22 180.253 76.94 180.58C76.66 180.86 76.31 181 75.89 181H68.12C67.28 181 66.65 180.79 66.23 180.37C65.81 179.903 65.5067 179.483 65.32 179.11L56.78 163.08H48.31V179.25C48.31 179.763 48.1467 180.183 47.82 180.51C47.4933 180.837 47.0733 181 46.56 181H38.93ZM48.31 154.19H57.27C59.8367 154.19 61.7267 153.607 62.94 152.44C64.2 151.273 64.83 149.64 64.83 147.54C64.83 145.44 64.2233 143.783 63.01 142.57C61.7967 141.357 59.8833 140.75 57.27 140.75H48.31V154.19ZM97.4948 181.7C94.7882 181.7 92.3848 181.093 90.2848 179.88C88.2315 178.62 86.6215 176.823 85.4548 174.49C84.3348 172.11 83.7748 169.24 83.7748 165.88V146.35C83.7748 145.837 83.9382 145.417 84.2648 145.09C84.5915 144.763 84.9882 144.6 85.4548 144.6H92.8748C93.3882 144.6 93.8082 144.763 94.1348 145.09C94.4615 145.417 94.6248 145.837 94.6248 146.35V165.46C94.6248 170.687 96.9115 173.3 101.485 173.3C103.678 173.3 105.405 172.623 106.665 171.27C107.972 169.87 108.625 167.933 108.625 165.46V146.35C108.625 145.837 108.788 145.417 109.115 145.09C109.442 144.763 109.862 144.6 110.375 144.6H117.795C118.262 144.6 118.658 144.763 118.985 145.09C119.312 145.417 119.475 145.837 119.475 146.35V179.25C119.475 179.763 119.312 180.183 118.985 180.51C118.658 180.837 118.262 181 117.795 181H110.935C110.422 181 110.002 180.837 109.675 180.51C109.348 180.183 109.185 179.763 109.185 179.25V176.52C107.972 178.2 106.408 179.483 104.495 180.37C102.582 181.257 100.248 181.7 97.4948 181.7ZM145.785 181C142.892 181 140.418 180.533 138.365 179.6C136.312 178.62 134.748 177.127 133.675 175.12C132.648 173.113 132.135 170.593 132.135 167.56V152.86H126.675C126.162 152.86 125.742 152.697 125.415 152.37C125.088 152.043 124.925 151.623 124.925 151.11V146.35C124.925 145.837 125.088 145.417 125.415 145.09C125.742 144.763 126.162 144.6 126.675 144.6H132.135V133.05C132.135 132.537 132.298 132.117 132.625 131.79C132.998 131.463 133.418 131.3 133.885 131.3H140.745C141.258 131.3 141.678 131.463 142.005 131.79C142.332 132.117 142.495 132.537 142.495 133.05V144.6H151.245C151.712 144.6 152.108 144.763 152.435 145.09C152.762 145.417 152.925 145.837 152.925 146.35V151.11C152.925 151.623 152.762 152.043 152.435 152.37C152.108 152.697 151.712 152.86 151.245 152.86H142.495V166.72C142.495 168.493 142.798 169.893 143.405 170.92C144.058 171.9 145.178 172.39 146.765 172.39H151.875C152.342 172.39 152.738 172.553 153.065 172.88C153.392 173.207 153.555 173.603 153.555 174.07V179.25C153.555 179.763 153.392 180.183 153.065 180.51C152.738 180.837 152.342 181 151.875 181H145.785ZM173.032 181.7C170.325 181.7 167.922 181.093 165.822 179.88C163.769 178.62 162.159 176.823 160.992 174.49C159.872 172.11 159.312 169.24 159.312 165.88V146.35C159.312 145.837 159.475 145.417 159.802 145.09C160.129 144.763 160.525 144.6 160.992 144.6H168.412C168.925 144.6 169.345 144.763 169.672 145.09C169.999 145.417 170.162 145.837 170.162 146.35V165.46C170.162 170.687 172.449 173.3 177.022 173.3C179.215 173.3 180.942 172.623 182.202 171.27C183.509 169.87 184.162 167.933 184.162 165.46V146.35C184.162 145.837 184.325 145.417 184.652 145.09C184.979 144.763 185.399 144.6 185.912 144.6H193.332C193.799 144.6 194.195 144.763 194.522 145.09C194.849 145.417 195.012 145.837 195.012 146.35V179.25C195.012 179.763 194.849 180.183 194.522 180.51C194.195 180.837 193.799 181 193.332 181H186.472C185.959 181 185.539 180.837 185.212 180.51C184.885 180.183 184.722 179.763 184.722 179.25V176.52C183.509 178.2 181.945 179.483 180.032 180.37C178.119 181.257 175.785 181.7 173.032 181.7ZM224.962 181.7C222.302 181.7 220.085 181.257 218.312 180.37C216.539 179.437 215.092 178.27 213.972 176.87V179.25C213.972 179.763 213.809 180.183 213.482 180.51C213.155 180.837 212.735 181 212.222 181H205.572C205.059 181 204.639 180.837 204.312 180.51C203.985 180.183 203.822 179.763 203.822 179.25V133.05C203.822 132.537 203.985 132.117 204.312 131.79C204.639 131.463 205.059 131.3 205.572 131.3H212.782C213.249 131.3 213.645 131.463 213.972 131.79C214.299 132.117 214.462 132.537 214.462 133.05V148.31C215.629 147.003 217.075 145.953 218.802 145.16C220.529 144.32 222.582 143.9 224.962 143.9C227.389 143.9 229.489 144.32 231.262 145.16C233.082 145.953 234.622 147.097 235.882 148.59C237.142 150.037 238.099 151.763 238.752 153.77C239.452 155.777 239.825 157.993 239.872 160.42C239.919 161.26 239.942 162.053 239.942 162.8C239.942 163.5 239.919 164.293 239.872 165.18C239.779 167.653 239.382 169.917 238.682 171.97C238.029 173.977 237.072 175.727 235.812 177.22C234.599 178.667 233.082 179.787 231.262 180.58C229.489 181.327 227.389 181.7 224.962 181.7ZM221.812 173.3C223.585 173.3 224.985 172.927 226.012 172.18C227.039 171.387 227.762 170.36 228.182 169.1C228.649 167.84 228.929 166.463 229.022 164.97C229.115 163.523 229.115 162.077 229.022 160.63C228.929 159.137 228.649 157.76 228.182 156.5C227.762 155.24 227.039 154.237 226.012 153.49C224.985 152.697 223.585 152.3 221.812 152.3C220.132 152.3 218.755 152.673 217.682 153.42C216.655 154.167 215.862 155.123 215.302 156.29C214.789 157.41 214.509 158.623 214.462 159.93C214.415 160.77 214.392 161.633 214.392 162.52C214.392 163.407 214.415 164.293 214.462 165.18C214.555 166.58 214.835 167.887 215.302 169.1C215.769 170.313 216.539 171.317 217.612 172.11C218.685 172.903 220.085 173.3 221.812 173.3ZM263.607 181.7C258.24 181.7 253.97 180.207 250.797 177.22C247.67 174.233 246.014 169.893 245.827 164.2C245.827 163.827 245.827 163.337 245.827 162.73C245.827 162.077 245.827 161.563 245.827 161.19C246.014 157.597 246.83 154.517 248.277 151.95C249.724 149.337 251.754 147.353 254.367 146C256.98 144.6 260.037 143.9 263.537 143.9C267.457 143.9 270.724 144.717 273.337 146.35C275.997 147.937 277.98 150.13 279.287 152.93C280.64 155.683 281.317 158.857 281.317 162.45V164.06C281.317 164.527 281.13 164.923 280.757 165.25C280.43 165.577 280.034 165.74 279.567 165.74H256.677C256.677 165.787 256.677 165.88 256.677 166.02C256.677 166.113 256.677 166.207 256.677 166.3C256.724 167.793 257.004 169.17 257.517 170.43C258.077 171.643 258.847 172.623 259.827 173.37C260.854 174.117 262.067 174.49 263.467 174.49C264.634 174.49 265.59 174.327 266.337 174C267.084 173.673 267.69 173.277 268.157 172.81C268.67 172.343 269.044 171.947 269.277 171.62C269.697 171.153 270.024 170.873 270.257 170.78C270.537 170.64 270.957 170.57 271.517 170.57H278.797C279.264 170.57 279.637 170.71 279.917 170.99C280.244 171.223 280.384 171.573 280.337 172.04C280.29 172.787 279.894 173.72 279.147 174.84C278.447 175.913 277.397 176.987 275.997 178.06C274.597 179.087 272.847 179.95 270.747 180.65C268.694 181.35 266.314 181.7 263.607 181.7ZM256.677 159.37H270.397V159.23C270.397 157.55 270.117 156.103 269.557 154.89C269.044 153.63 268.274 152.65 267.247 151.95C266.22 151.25 264.984 150.9 263.537 150.9C262.09 150.9 260.854 151.25 259.827 151.95C258.8 152.65 258.007 153.63 257.447 154.89C256.934 156.103 256.677 157.55 256.677 159.23V159.37Z" fill="#1E88E5"/>
</svg>
