<svg width="316" height="316" viewBox="0 0 316 316" fill="none" xmlns="http://www.w3.org/2000/svg">
<circle cx="158" cy="158" r="158" fill="white"/>
<path d="M227.938 75.4748C201.28 86.516 86.9717 133.864 55.3884 146.768C34.2073 155.034 46.607 162.784 46.607 162.784C46.607 162.784 64.6877 168.983 80.1879 173.633C95.6859 178.282 103.952 173.117 103.952 173.117L176.794 124.038C202.625 106.473 196.426 120.938 190.225 127.138C176.794 140.572 154.58 161.751 135.981 178.8C127.715 186.032 131.847 192.231 135.466 195.332C148.897 206.698 185.578 229.946 187.643 231.495C198.556 239.221 220.023 250.343 223.288 226.845L236.204 145.737C240.338 118.357 244.47 93.0419 244.985 85.8097C246.537 68.2425 227.938 75.4748 227.938 75.4748Z" fill="#1B92D1"/>
</svg>
