<svg width="316" height="316" viewBox="0 0 316 316" fill="none" xmlns="http://www.w3.org/2000/svg">
<circle cx="158" cy="158" r="158" fill="white"/>
<path d="M155.732 212.405H167.192C167.192 212.405 170.656 212.022 172.418 210.118C174.049 208.37 173.989 205.089 173.989 205.089C173.989 205.089 173.761 189.724 180.906 187.461C187.942 185.233 196.981 202.31 206.559 208.885C213.799 213.855 219.302 212.765 219.302 212.765L244.919 212.405C244.919 212.405 258.321 211.579 251.968 201.053C251.452 200.191 248.263 193.269 232.919 179.042C216.856 164.145 219.014 166.564 238.362 140.804C250.146 125.117 254.857 115.536 253.382 111.441C251.98 107.537 243.313 108.567 243.313 108.567L214.495 108.734C214.495 108.734 212.361 108.447 210.766 109.393C209.22 110.327 208.225 112.483 208.225 112.483C208.225 112.483 203.658 124.626 197.568 134.948C184.73 156.732 179.587 157.881 177.489 156.528C172.61 153.379 173.833 143.858 173.833 137.104C173.833 115.991 177.034 107.189 167.587 104.914C164.447 104.16 162.145 103.657 154.125 103.573C143.84 103.465 135.125 103.609 130.198 106.016C126.914 107.621 124.384 111.201 125.931 111.405C127.837 111.656 132.152 112.566 134.442 115.68C137.403 119.692 137.295 128.721 137.295 128.721C137.295 128.721 138.997 153.57 133.327 156.66C129.431 158.78 124.097 154.456 112.649 134.685C106.787 124.566 102.351 113.369 102.351 113.369C102.351 113.369 101.5 111.285 99.9778 110.171C98.1317 108.818 95.5424 108.387 95.5424 108.387L68.139 108.555C68.139 108.555 64.0272 108.674 62.5168 110.459C61.1742 112.051 62.4089 115.333 62.4089 115.333C62.4089 115.333 83.8666 165.474 108.153 190.754C130.438 213.926 155.732 212.405 155.732 212.405Z" fill="#1E88E5"/>
</svg>
